<svg width="21" height="20" viewBox="0 0 21 20" fill="none" xmlns="http://www.w3.org/2000/svg">
<path d="M18.3752 9.2498C19.4106 9.2498 20.25 8.41041 20.25 7.37496V7.37496C20.25 6.33952 19.4105 5.50012 18.3751 5.50012V5.50012C17.3395 5.50012 16.5 6.33959 16.5 7.37512V9.2498H18.3752ZM13.125 9.2498C14.1605 9.2498 15 8.41033 15 7.3748V2.12512C15 1.08959 14.1605 0.250122 13.125 0.250122V0.250122C12.0895 0.250122 11.25 1.08959 11.25 2.12512V7.3748C11.25 8.41033 12.0895 9.2498 13.125 9.2498V9.2498Z" fill="#2EB67D"/>
<path d="M2.62484 10.7502C1.58939 10.7502 0.750001 11.5896 0.750001 12.625V12.625C0.750001 13.6605 1.58947 14.4999 2.62492 14.4999V14.4999C3.66045 14.4999 4.5 13.6604 4.5 12.6249V10.7502H2.62484ZM7.875 10.7502C6.83947 10.7502 6 11.5897 6 12.6252V17.8749C6 18.9104 6.83947 19.7499 7.875 19.7499V19.7499C8.91053 19.7499 9.75 18.9104 9.75 17.8749V12.6252C9.75 11.5897 8.91053 10.7502 7.875 10.7502V10.7502Z" fill="#E01E5A"/>
<path d="M11.2501 17.8752C11.2501 18.9106 12.0895 19.75 13.125 19.75V19.75C14.1604 19.75 14.9998 18.9105 14.9998 17.8751V17.8751C14.9998 16.8395 14.1603 16 13.1248 16L11.2501 16L11.2501 17.8752ZM11.2501 12.625C11.2501 13.6605 12.0896 14.5 13.1251 14.5L18.3748 14.5C19.4103 14.5 20.2498 13.6605 20.2498 12.625V12.625C20.2498 11.5895 19.4104 10.75 18.3748 10.75L13.1251 10.75C12.0896 10.75 11.2501 11.5895 11.2501 12.625V12.625Z" fill="#ECB22E"/>
<path d="M9.7498 2.12484C9.7498 1.08939 8.91041 0.25 7.87496 0.25V0.25C6.83952 0.25 6.00012 1.08947 6.00012 2.12492V2.12492C6.00012 3.16045 6.83959 4 7.87512 4L9.7498 4L9.7498 2.12484ZM9.7498 7.375C9.7498 6.33947 8.91033 5.5 7.8748 5.5L2.62512 5.5C1.58959 5.5 0.750122 6.33947 0.750122 7.375V7.375C0.750122 8.41053 1.58959 9.25 2.62512 9.25L7.8748 9.25C8.91033 9.25 9.7498 8.41053 9.7498 7.375V7.375Z" fill="#36C5F0"/>
</svg>
